# xmcd
#
# Track frame offsets:
#	150
#	11822
#	28686
#	41581
#	57980
#	73936
#	87257
#	100493
#	114953
#	131883
#	150765
#	163410
#	177513
#	193048
#	208306
#
# Disc length: 2986 seconds
#
# Revision: 0
# Processed by: cddbd v1.5.1PL2 Copyright (c) Steve Scherf et al.
# Submitted via: dBpowerAMP V4.0
#
DISCID=da0ba80f
DTITLE=Alecir e Alessandro - Você no Coração
DYEAR=2005
DGENRE=Sertanejo
TTITLE0=Eu tô de pá virada
TTITLE1=Saudade de Você
TTITLE2=Quem foi que disse
TTITLE3=Você no Coração
TTITLE4=Felicidade
TTITLE5=Vai doer pra lá
TTITLE6=Mentira não adianta
TTITLE7=Blusa Vermelha
TTITLE8=Volte Atrás
TTITLE9=Não vou te esquecer
TTITLE10=Sozinho sem ninguém
TTITLE11=A dama e o vagabundo
TTITLE12=Baila Maria
TTITLE13=Será que ela vem?
TTITLE14=O Fora
EXTD=Alecir e Alessandro
EXTT0=
EXTT1=
EXTT2=
EXTT3=
EXTT4=
EXTT5=
EXTT6=
EXTT7=
EXTT8=
EXTT9=
EXTT10=
EXTT11=
EXTT12=
EXTT13=
EXTT14=
PLAYORDER=
